HIERARCHY
ROOT Hips
{
	OFFSET 0.000000 0.000000 0.000000
	CHANNELS 6 Xposition Yposition Zposition Xrotation Yrotation Zrotation
	JOINT LeftUpLeg_virtual
	{
		OFFSET 0.000000 0.000000 0.000000
		CHANNELS 3 Xrotation Yrotation Zrotation
		JOINT LeftUpLeg
		{
			OFFSET 15.427100 -6.655098 0.678600
			CHANNELS 3 Xrotation Yrotation Zrotation
			JOINT LeftLeg
			{
				OFFSET 4.081073 -39.591068 13.024000
				CHANNELS 3 Xrotation Yrotation Zrotation
				JOINT LeftFoot
				{
					OFFSET -4.081074 -37.707932 -15.979700
					CHANNELS 3 Xrotation Yrotation Zrotation
					JOINT LeftToeBase
					{
						OFFSET 5.346399 -15.068900 20.645000
						CHANNELS 3 Xrotation Yrotation Zrotation
						JOINT LeftToe_End
						{
							OFFSET 2.754700 0.931300 11.300900
							CHANNELS 3 Xrotation Yrotation Zrotation
							End Site
							{
								OFFSET 0 0 0
							}
						}
					}
				}
			}
		}
	}
	JOINT RightUpLeg_virtual
	{
		OFFSET 0.000000 0.000000 0.000000
		CHANNELS 3 Xrotation Yrotation Zrotation
		JOINT RightUpLeg
		{
			OFFSET -15.569500 -6.655098 0.678600
			CHANNELS 3 Xrotation Yrotation Zrotation
			JOINT RightLeg
			{
				OFFSET -4.081825 -39.591045 13.023800
				CHANNELS 3 Xrotation Yrotation Zrotation
				JOINT RightFoot
				{
					OFFSET 4.081824 -37.707954 -15.979600
					CHANNELS 3 Xrotation Yrotation Zrotation
					JOINT RightToeBase
					{
						OFFSET -5.346400 -15.068900 20.645000
						CHANNELS 3 Xrotation Yrotation Zrotation
						JOINT RightToe_End
						{
							OFFSET -2.754700 0.931300 11.300900
							CHANNELS 3 Xrotation Yrotation Zrotation
							End Site
							{
								OFFSET 0 0 0
							}
						}
					}
				}
			}
		}
	}
	JOINT Spine_virtual
	{
		OFFSET 0.000000 0.000000 0.000000
		CHANNELS 3 Xrotation Yrotation Zrotation
		JOINT Spine
		{
			OFFSET -0.279200 12.230698 -2.892100
			CHANNELS 3 Xrotation Yrotation Zrotation
			JOINT Spine1
			{
				OFFSET -0.232667 10.192268 -1.242267
				CHANNELS 3 Xrotation Yrotation Zrotation
				JOINT Spine1_split
				{
					OFFSET -0.232667 10.192268 -1.242267
					CHANNELS 3 Xrotation Yrotation Zrotation
					JOINT Spine2
					{
						OFFSET -0.232667 10.192268 -1.242267
						CHANNELS 3 Xrotation Yrotation Zrotation
						JOINT Neck_virtual
						{
							OFFSET 0.000000 0.000000 0.000000
							CHANNELS 3 Xrotation Yrotation Zrotation
							JOINT Neck
							{
								OFFSET -0.418800 17.814194 8.416900
								CHANNELS 3 Xrotation Yrotation Zrotation
								JOINT Head
								{
									OFFSET 0.000000 7.031097 3.806800
									CHANNELS 3 Xrotation Yrotation Zrotation
									JOINT HeadTop_End
									{
										OFFSET 0.000000 24.646606 12.978600
										CHANNELS 3 Xrotation Yrotation Zrotation
										End Site
										{
											OFFSET 0 0 0
										}
									}
								}
							}
						}
						JOINT LeftShoulder_virtual
						{
							OFFSET 0.000000 0.000000 0.000000
							CHANNELS 3 Xrotation Yrotation Zrotation
							JOINT LeftShoulder
							{
								OFFSET 8.476499 7.247704 -3.868750
								CHANNELS 3 Xrotation Yrotation Zrotation
								JOINT LeftShoulder_split
								{
									OFFSET 8.476499 7.247704 -3.868750
									CHANNELS 3 Xrotation Yrotation Zrotation
									JOINT LeftArm
									{
										OFFSET 9.308998 -2.777710 0.208600
										CHANNELS 3 Xrotation Yrotation Zrotation
										JOINT LeftForeArm
										{
											OFFSET 29.972298 0.000000 0.000000
											CHANNELS 3 Xrotation Yrotation Zrotation
											JOINT LeftHand
											{
												OFFSET 26.026505 0.000000 0.000000
												CHANNELS 3 Xrotation Yrotation Zrotation
												End Site
												{
													OFFSET 0 0 0
												}
											}
										}
									}
								}
							}
						}
						JOINT RightShoulder_virtual
						{
							OFFSET 0.000000 0.000000 0.000000
							CHANNELS 3 Xrotation Yrotation Zrotation
							JOINT RightShoulder
							{
								OFFSET -7.570500 7.247704 -3.868750
								CHANNELS 3 Xrotation Yrotation Zrotation
								JOINT RightShoulder_split
								{
									OFFSET -7.570500 7.247704 -3.868750
									CHANNELS 3 Xrotation Yrotation Zrotation
									JOINT RightArm
									{
										OFFSET -9.308998 -2.777710 0.208500
										CHANNELS 3 Xrotation Yrotation Zrotation
										JOINT RightForeArm
										{
											OFFSET -29.972300 0.000000 0.000000
											CHANNELS 3 Xrotation Yrotation Zrotation
											JOINT RightHand
											{
												OFFSET -26.026505 0.000000 0.000000
												CHANNELS 3 Xrotation Yrotation Zrotation
												End Site
												{
													OFFSET 0 0 0
												}
											}
										}
									}
								}
							}
						}
					}
				}
			}
		}
	}
}
MOTION
Frames: 8
Frame Time: 0.03333333
2.174685 71.410225 -1.526627 0.000000 0.000000 0.000000 -5.805704 -51.145064 -0.871556 -33.688515 9.574221 21.787810 56.593312 -4.867797 4.418314 -21.945642 -6.918540 -16.524850 -2.763588 0.134652 0.916821 0.000000 0.000000 0.000000 -6.599197 -49.252081 -0.392557 -18.033545 -7.479054 -34.027975 54.159589 -0.539911 -3.958614 -25.218973 -10.629853 27.261710 1.667380 0.580804 0.279010 0.000000 0.000000 0.000000 -5.415332 -47.182435 0.026982 10.673608 8.189081 -1.032792 1.552640 1.710838 -0.829291 0.801148 0.987079 0.254044 0.000000 0.000000 0.000000 2.293623 0.886061 -0.602087 -1.587609 10.781469 3.184758 8.781741 20.121172 -4.289117 0.000000 0.000000 0.000000 2.512149 0.867546 -0.834040 0.707673 1.908632 -4.994118 -1.413914 -1.457796 -1.703743 -52.932784 2.637003 -50.366764 -172.372009 -75.197774 -168.277488 0.000000 0.000000 0.000000 3.136972 1.094875 -0.803735 2.318931 11.726950 -6.956476 0.008001 -0.406060 1.520882 -53.731018 30.604459 85.756208 -179.111971 70.136303 177.650529 0.000000 0.000000 0.000000 
2.201761 71.557487 -1.325203 0.000000 0.000000 0.000000 -5.681902 -51.072688 -0.658062 -33.340889 9.472405 21.585590 56.556350 -5.081648 4.415238 -21.507134 -6.666283 -16.316919 -2.867610 0.104760 0.834235 0.000000 0.000000 0.000000 -6.815322 -49.123301 -0.354186 -17.880628 -8.074544 -34.032063 54.038370 -0.845440 -3.870124 -25.573779 -10.952758 26.791931 2.087559 0.591658 0.141190 0.000000 0.000000 0.000000 -5.480832 -47.070983 -0.075627 10.615050 8.238555 -1.174664 1.514224 1.618880 -0.792979 0.888192 1.692601 0.548495 0.000000 0.000000 0.000000 2.130562 0.884908 -0.594239 -1.825678 11.174607 3.108585 8.355225 20.395148 -4.275643 0.000000 0.000000 0.000000 2.563192 0.819225 -0.736139 0.704274 1.288721 -5.240538 -0.652131 -1.427879 -0.675087 -53.677808 3.948044 -50.647799 -176.995377 -75.448961 -173.130378 0.000000 0.000000 0.000000 3.116659 1.067235 -0.738923 2.298850 12.001544 -6.847753 -0.001325 -0.892222 1.117976 -53.809607 30.569154 85.242018 -179.217866 69.817852 177.811367 0.000000 0.000000 0.000000 
2.203143 71.833954 -1.189407 0.000000 0.000000 0.000000 -5.592635 -50.962589 -0.419044 -32.775680 9.513373 21.500737 56.279693 -5.783070 4.262638 -21.156420 -6.450708 -16.129497 -3.000511 0.035808 0.645489 0.000000 0.000000 0.000000 -6.928887 -49.080179 -0.269967 -17.534907 -8.793031 -33.912142 53.459812 -1.065967 -3.853870 -25.990352 -11.300692 26.015974 1.767513 0.619488 -0.041245 0.000000 0.000000 0.000000 -5.349562 -47.273846 -0.035816 10.463099 8.330674 -1.371524 1.478252 1.541847 -0.824650 0.597986 1.710270 0.564059 0.000000 0.000000 0.000000 1.956297 0.971396 -0.657613 -2.032079 11.827864 3.182871 7.994097 20.935498 -3.883297 0.000000 0.000000 0.000000 2.657735 0.867909 -0.687982 0.602694 0.300603 -5.487101 0.038127 -0.210903 0.881287 -54.965469 6.234338 -50.162866 179.271729 -74.138282 -177.180926 0.000000 0.000000 0.000000 2.981121 1.142675 -0.728525 2.317132 12.293654 -6.312115 -0.202782 -1.389422 0.721899 -54.175466 31.237594 84.542265 -179.545743 69.509777 178.192259 0.000000 0.000000 0.000000 
2.251943 72.195747 -1.037220 0.000000 0.000000 0.000000 -5.522310 -51.086052 -0.246297 -32.044259 9.964401 21.597111 55.739415 -6.734198 3.900201 -21.061527 -6.103040 -15.904715 -3.112902 -0.071175 0.414613 0.000000 0.000000 0.000000 -6.811720 -49.468260 -0.142430 -17.265108 -9.449399 -33.660866 52.520719 -1.083973 -3.919531 -26.110628 -11.546080 24.971930 0.779115 0.631559 -0.141288 0.000000 0.000000 0.000000 -5.029429 -48.083186 0.195724 10.165300 8.451144 -1.566493 1.443897 1.544799 -0.926576 0.269244 1.379517 0.456062 0.000000 0.000000 0.000000 1.797290 1.160526 -0.767144 -2.192905 12.525253 3.387610 7.790177 21.980640 -3.334838 0.000000 0.000000 0.000000 2.661566 1.036155 -0.740931 0.480912 -0.656860 -5.501804 0.623675 1.443255 2.248385 -55.886913 8.423319 -49.319368 178.261544 -72.124844 -178.686655 0.000000 0.000000 0.000000 2.785958 1.320147 -0.815628 2.329786 12.543755 -5.407386 -0.399889 -1.485869 0.361452 -54.845179 32.662385 83.940539 -179.905448 69.231330 178.603737 0.000000 0.000000 0.000000 
2.280142 72.603622 -0.654228 0.000000 0.000000 0.000000 -5.375995 -51.908160 -0.149194 -31.105125 10.939691 21.897055 54.818507 -7.559726 3.302101 -21.512458 -5.384076 -15.346803 -3.215928 -0.201023 0.233212 0.000000 0.000000 0.000000 -6.317903 -50.546415 0.093481 -17.481692 -9.640187 -33.335015 51.331307 -0.729047 -4.059088 -25.628492 -11.475909 23.927223 -0.325221 0.606912 -0.099566 0.000000 0.000000 0.000000 -4.443492 -49.510303 0.644885 9.723485 8.564948 -1.693284 1.352682 1.647173 -1.095427 -0.035318 0.917378 0.181723 0.000000 0.000000 0.000000 1.658007 1.417364 -0.938858 -2.352544 13.178406 3.602911 7.543087 23.592266 -2.874416 0.000000 0.000000 0.000000 2.559582 1.313318 -0.878859 0.352434 -1.180172 -5.052246 0.428262 2.134311 2.495173 -55.298800 10.095493 -47.843798 179.149988 -69.519906 -178.324819 0.000000 0.000000 0.000000 2.562248 1.563389 -0.981986 2.279979 12.595939 -4.412400 -0.656725 -1.650765 0.114640 -55.987822 35.021371 83.759054 179.798842 69.149914 178.928895 0.000000 0.000000 0.000000 
2.337424 73.055054 -0.003605 0.000000 0.000000 0.000000 -5.094540 -53.771771 -0.118260 -29.785277 12.387652 22.331348 53.533711 -7.975965 2.556250 -22.562029 -4.156851 -14.296289 -3.286146 -0.328193 0.119602 0.000000 0.000000 0.000000 -5.546237 -52.491302 0.355888 -18.506222 -9.254521 -32.897070 50.131311 0.021611 -4.245497 -24.416673 -10.974294 23.098411 -0.919819 0.543124 0.101252 0.000000 0.000000 0.000000 -3.747107 -51.678038 1.114079 9.238615 8.579651 -1.711177 1.157190 1.807314 -1.329431 -0.171444 0.313729 0.243119 0.000000 0.000000 0.000000 1.538053 1.666960 -1.132068 -2.695474 13.738082 3.788961 7.096435 25.590219 -2.744613 0.000000 0.000000 0.000000 2.378313 1.609433 -1.041412 0.257926 -0.889430 -3.925944 -0.075212 1.963216 1.918106 -53.526840 10.391013 -45.872517 -179.191884 -67.193427 -177.176173 0.000000 0.000000 0.000000 2.393367 1.796261 -1.186015 2.131354 12.294388 -3.592019 -1.054811 -2.290567 0.039746 -57.641988 38.263737 84.257350 179.684341 69.559780 179.092560 0.000000 0.000000 0.000000 
2.422332 73.539406 0.702660 0.000000 0.000000 0.000000 -4.674311 -56.623515 -0.131911 -28.171805 14.083815 22.837405 52.132812 -7.983520 1.850234 -24.032576 -2.549962 -12.786522 -3.390187 -0.439097 0.130954 0.000000 0.000000 0.000000 -4.753010 -55.151735 0.553041 -20.163338 -8.401983 -32.281048 49.085141 1.091676 -4.466027 -22.791966 -10.072664 22.447652 -0.735046 0.476560 0.353261 0.000000 0.000000 0.000000 -2.968624 -54.167724 1.472007 8.750192 8.496043 -1.550629 0.931176 1.918759 -1.547099 0.020383 0.136547 0.619689 0.000000 0.000000 0.000000 1.481822 1.785077 -1.272707 -3.405001 14.277770 3.921591 6.378717 27.814917 -3.028191 0.000000 0.000000 0.000000 2.089676 1.783139 -1.167108 0.092786 0.066808 -2.276321 -0.167959 1.221266 0.740939 -52.361801 8.700825 -43.197992 -177.929556 -66.617465 -176.297414 0.000000 0.000000 0.000000 2.245386 1.918590 -1.340811 1.916562 11.674947 -3.111533 -1.277906 -3.211172 0.208644 -59.738187 42.117115 85.322641 179.825944 70.524572 179.035091 0.000000 0.000000 0.000000 
2.533720 74.010231 1.419785 0.000000 0.000000 0.000000 -4.342150 -59.886989 -0.289097 -26.413957 15.727293 23.269119 50.866980 -7.677024 1.348118 -25.652044 -0.879204 -11.006056 -3.446573 -0.529513 0.228946 0.000000 0.000000 0.000000 -4.096784 -58.089120 0.606855 -22.042376 -7.281791 -31.366394 48.193033 2.284932 -4.772795 -21.228993 -8.972481 21.979047 0.093198 0.456406 0.543309 0.000000 0.000000 0.000000 -2.249840 -56.566179 1.541232 8.332461 8.271289 -1.180364 0.720028 1.830685 -1.669080 0.579322 -0.181439 0.847296 0.000000 0.000000 0.000000 1.474027 1.633697 -1.315495 -4.564457 14.847694 4.033185 5.427689 29.948812 -3.692425 0.000000 0.000000 0.000000 1.816316 1.682877 -1.183271 -0.158218 1.304460 -0.293370 0.133287 0.530257 -0.715067 -52.863605 4.760025 -39.009075 -176.617490 -70.770363 -174.980157 0.000000 0.000000 0.000000 2.021685 1.798199 -1.355440 1.679595 10.788608 -2.994207 -1.323762 -4.180164 0.350846 -62.114983 45.954869 86.736873 -179.801834 71.813900 178.771623 0.000000 0.000000 0.000000 
